<svg xmlns="http://www.w3.org/2000/svg" viewBox="0 0 96 96">
  <path d="M33.17 55.67l-8.68 4.49v4.62L48 76.93l23.51-12.15v-4.62L63 55.77l4.77-2.36 8 4.15v9.77L48 81.75 20.21 67.4v-9.78l8.4-4.36zM48 52.82L20.21 38.46v-9.77L48 14.25l27.79 14.37v9.77l-1.16.67zm-23.51-17L48 48l23.51-12.16v-4.61L48 19.07 24.49 31.23z"/>
  <path d="M48 67.29L20.21 52.93v-9.78L48 28.72l27.79 14.37v9.77l-1.16.67zm-23.51-17L48 62.47l23.51-12.16V45.7L48 33.54 24.49 45.7z"/>
  <path d="M48 67.29L20.21 52.93v-9.78L48 28.72l27.79 14.37v9.77l-1.16.67zm-23.51-17L48 62.47l23.51-12.16V45.7L48 33.54 24.49 45.7z"/>
</svg>
