<svg xmlns="http://www.w3.org/2000/svg" viewBox="0 0 96 96">
  <path d="M67.64 40.66c-2.39-2.41-7.08-6.07-13.57-6.07a20.05 20.05 0 00-7.2 1.41 24.66 24.66 0 001.18-8 16.46 16.46 0 00-5.83-12.56H35c-2.35 2.35-6 7-6 13a24.72 24.72 0 006.15 15.63c-3.49 4-6.8 8.21-6.8 14.85 0 5 2.27 8.25 4.27 11.13s3.93 5.64 3.93 10.35h4.95c0-6.26-2.56-9.93-4.82-13.18-1.89-2.71-3.38-4.86-3.38-8.3 0-4.78 2.28-7.85 5.35-11.34a24 24 0 0015.19 6.05 18.45 18.45 0 0013.8-5.84zm-29.17-.22A19.63 19.63 0 0134 28.52c0-4.38 2.9-7.9 4.63-9.62a11.74 11.74 0 014.53 9.18c-.05 6.3-2.01 9.29-4.69 12.36zm15.37 8.33a18.82 18.82 0 01-11.58-4.5c2.62-2 7.17-4.74 11.81-4.74 4.83 0 8.45 3 10.19 4.74a13.62 13.62 0 01-10.42 4.5z"/>
</svg>
