<svg xmlns="http://www.w3.org/2000/svg" viewBox="0 0 24 24"><path d="M15.2 5.5H8.8c-2.2.1-3.2 1.1-3.3 3.3v6.4c.1 2.1 1.1 3.2 3.3 3.3h6.4c2.2-.1 3.2-1.1 3.3-3.3V8.8c-.1-2.2-1.1-3.2-3.3-3.3zM12 16.1c-2.3 0-4.1-1.8-4.1-4.1S9.7 7.9 12 7.9s4.1 1.8 4.1 4.1-1.8 4.1-4.1 4.1zm4.3-7.4c-.5 0-1-.4-1-1s.4-1 1-1c.5 0 1 .4 1 1s-.5 1-1 1zM14.7 12c0 1.5-1.2 2.7-2.7 2.7S9.3 13.5 9.3 12c0-1.5 1.2-2.7 2.7-2.7s2.7 1.2 2.7 2.7zM19 0H5C2.2 0 0 2.2 0 5v14c0 2.8 2.2 5 5 5h14c2.8 0 5-2.2 5-5V5c0-2.8-2.2-5-5-5zm1 15.3c-.1 2.9-1.8 4.5-4.7 4.7H8.7c-2.9-.1-4.5-1.7-4.7-4.7V8.7C4.2 5.8 5.8 4.2 8.7 4h6.6c2.9.1 4.5 1.8 4.7 4.7v6.6z"/></svg>