<svg xmlns="http://www.w3.org/2000/svg" viewBox="0 0 24 24"><path d="M19 0H5a4.951 4.951 0 0 0-5 5v14a4.951 4.951 0 0 0 5 5h14a4.951 4.951 0 0 0 5-5V5a4.951 4.951 0 0 0-5-5Zm.463 16.987a4.11 4.11 0 0 1-1.065.419l-.034.009-.057.016-.171.05a.436.436 0 0 0-.182.109.443.443 0 0 0-.073.2l-.006.029a.813.813 0 0 1-.319.573 1.582 1.582 0 0 1-.895.19h-.032a4.826 4.826 0 0 0-1.4.22 3.684 3.684 0 0 0-.725.381l-.026.016-.008.005a4.244 4.244 0 0 1-4.931 0l-.022-.004a3.586 3.586 0 0 0-.749-.393 4.741 4.741 0 0 0-1.432-.221h-.024a1.619 1.619 0 0 1-.874-.19.789.789 0 0 1-.313-.535l-.01-.054a.45.45 0 0 0-.075-.216.456.456 0 0 0-.19-.114 6.879 6.879 0 0 0-.221-.062 4.352 4.352 0 0 1-1.2-.494.779.779 0 0 1-.4-.8c.061-.221.394-.394.394-.394a1.32 1.32 0 0 1 .072-.038l.02-.01a6.459 6.459 0 0 0 1.447-.979 5.073 5.073 0 0 0 .85-.981 3.718 3.718 0 0 0 .466-.971.351.351 0 0 0 0-.252.435.435 0 0 0-.129-.142c-.142-.1-.347-.238-.516-.351l-.148-.1c-.163-.107-.3-.2-.381-.256a1.679 1.679 0 0 1-.544-.577 1.009 1.009 0 0 1-.048-.84.961.961 0 0 1 .946-.615 1.278 1.278 0 0 1 .306.035 5.1 5.1 0 0 1 .7.231.022.022 0 0 0 .036-.017A14.907 14.907 0 0 1 7.513 8a4.627 4.627 0 0 1 .367-1.529 4.134 4.134 0 0 1 .657-1 4.075 4.075 0 0 1 1.037-.847 4.992 4.992 0 0 1 4.837 0 3.994 3.994 0 0 1 1.038.847 4.134 4.134 0 0 1 .657 1A4.627 4.627 0 0 1 16.473 8a15.742 15.742 0 0 1 .01 1.862.023.023 0 0 0 .031.021 4.251 4.251 0 0 1 .707-.231 1.3 1.3 0 0 1 .306-.035.961.961 0 0 1 .946.615 1.017 1.017 0 0 1-.048.84 1.675 1.675 0 0 1-.544.577c-.053.039-.132.09-.225.152l-.156.1c-.187.121-.49.321-.677.456a.366.366 0 0 0-.115.131.331.331 0 0 0 0 .242 3.827 3.827 0 0 0 .469.982 5.1 5.1 0 0 0 .85.981 6.478 6.478 0 0 0 1.467.974l.04.023.041.022s.337.166.405.4c.058.194.02.57-.517.875Z"/></svg>