<svg viewBox="0 0 24 24" xmlns="http://www.w3.org/2000/svg"><g><path fill-rule="evenodd" clip-rule="evenodd" d="M19.046 0H5.012C2.205 0 0 2.205 0 5.012v14.034c0 2.806 2.205 5.012 5.012 5.012h14.034c2.806 0 5.012-2.206 5.012-5.012V5.012C24.058 2.205 21.852 0 19.046 0Zm-3.924 9.333a6.524 6.524 0 0 0 3.823 1.227V7.83a3.772 3.772 0 0 1-2.086-.63 3.81 3.81 0 0 1-1.679-2.507c-.04-.229-.06-.46-.058-.693h-2.74v10.918a2.324 2.324 0 0 1-3.033 2.22 2.337 2.337 0 0 1-.026-4.432c.464-.155.966-.16 1.433-.012v-2.81a5.045 5.045 0 0 0-2.98.5 5.069 5.069 0 0 0-2.166 2.114 5.096 5.096 0 0 0 .634 5.754 5.043 5.043 0 0 0 5.59 1.422 5.064 5.064 0 0 0 2.386-1.862c.587-.85.902-1.86.902-2.894V9.333Z" /></g></svg>
