<svg width="30" height="30" viewBox="0 0 30 30" fill="none" xmlns="http://www.w3.org/2000/svg">
<path fill-rule="evenodd" clip-rule="evenodd" d="M6.25 0H23.75C27.25 0 30 2.75 30 6.25V23.75C30 27.25 27.25 30 23.75 30H6.25C2.75 30 0 27.25 0 23.75V6.25C0 2.75 2.75 0 6.25 0ZM23.1796 6.25L16.6649 13.6563H16.6645L23.75 23.741H18.539L13.7676 16.9499L7.79388 23.741H6.25L13.0822 15.9744L6.25 6.25H11.461L15.9791 12.6807L21.6359 6.25H23.1796ZM13.8581 15.0918L14.5503 16.0601V16.0605L19.2653 22.6561H21.6366L15.8587 14.5733L15.1664 13.6049L10.7215 7.38664H8.35016L13.8581 15.0918Z" />
</svg>
