<svg xmlns="http://www.w3.org/2000/svg" viewBox="0 0 96 96">
  <path d="M55.69 69.27a16.3 16.3 0 01-11.53-27.84l11.52-11.52 3.16 3.15-11.52 11.53a11.84 11.84 0 1016.75 16.75 11.85 11.85 0 003.44-7.59l4.46.3a16.31 16.31 0 01-16.28 15.22z" />
  <path d="M57.26 33.72a2.26 2.26 0 01-1.58-.65L48 25.39l-7 7a2.23 2.23 0 11-3.15-3.15L48 19.08l10.84 10.83a2.24 2.24 0 01-1.58 3.81z" />
  <path d="M48 76.92A24 24 0 0131 36l1.58-1.58 5.25-5.24 1.58-1.58 3.15 3.15-5 5c-.85.86-1.71 1.71-2.35 2.35l-.78.77-.3.27a19.51 19.51 0 1027.59 0l-7.62-7.65 3.16-3.16L65 36a24 24 0 01-17 40.92z"/>
</svg>
