<svg viewBox="0 0 24 24" xmlns="http://www.w3.org/2000/svg"><path d="m14.51 11.981-4.171-2.11v4.22l4.171-2.11ZM19 0H5C2.2 0 0 2.2 0 5v14c0 2.8 2.2 5 5 5h14c2.8 0 5-2.2 5-5V5c0-2.8-2.2-5-5-5Zm-.793 7.282c.687.164 1.228.648 1.412 1.262.333 1.114.333 3.437.333 3.437s0 2.324-.334 3.438c-.183.614-.724 1.078-1.41 1.242-1.245.298-6.237.298-6.237.298s-4.991 0-6.236-.298c-.687-.164-1.228-.628-1.411-1.243-.334-1.113-.334-3.437-.334-3.437s0-2.323.334-3.437c.184-.614.724-1.098 1.411-1.262 1.245-.299 6.236-.299 6.236-.299s4.991 0 6.236.299Z"></path></svg>